<svg xmlns="http://www.w3.org/2000/svg" viewBox="0 0 512 512" role="img" aria-labelledby="title desc">
  <title id="title">Texas Thanos logo</title>
  <desc id="desc">Circular cricket team crest for Texas Thanos.</desc>
  <defs>
    <linearGradient id="bg" x1="0" x2="1" y1="0" y2="1">
      <stop offset="0%" stop-color="#081427"/>
      <stop offset="100%" stop-color="#25103b"/>
    </linearGradient>
    <linearGradient id="ring" x1="0" x2="1">
      <stop offset="0%" stop-color="#f2c94c"/>
      <stop offset="100%" stop-color="#f2994a"/>
    </linearGradient>
    <linearGradient id="orb" x1="0" x2="1" y1="0" y2="1">
      <stop offset="0%" stop-color="#8b5cf6"/>
      <stop offset="100%" stop-color="#3b82f6"/>
    </linearGradient>
  </defs>
  <rect width="512" height="512" rx="64" fill="#f6efe4"/>
  <circle cx="256" cy="256" r="214" fill="url(#bg)" stroke="#0b1220" stroke-width="18"/>
  <circle cx="256" cy="256" r="188" fill="none" stroke="url(#ring)" stroke-width="12"/>
  <circle cx="256" cy="200" r="66" fill="url(#orb)" stroke="#f8fafc" stroke-width="8"/>
  <path d="M170 287c18-38 50-60 86-60s68 22 86 60" fill="none" stroke="#f2c94c" stroke-width="18" stroke-linecap="round"/>
  <path d="M196 303c15 23 36 35 60 35s45-12 60-35" fill="none" stroke="#e2e8f0" stroke-width="14" stroke-linecap="round"/>
  <path d="M125 170l76 66" stroke="#dbe4f0" stroke-width="16" stroke-linecap="round"/>
  <path d="M387 170l-76 66" stroke="#dbe4f0" stroke-width="16" stroke-linecap="round"/>
  <circle cx="125" cy="170" r="16" fill="#f2c94c"/>
  <circle cx="387" cy="170" r="16" fill="#f2c94c"/>
  <text x="256" y="382" text-anchor="middle" fill="#f8fafc" font-family="Barlow, Arial, sans-serif" font-size="58" font-weight="700" letter-spacing="4">TEXAS</text>
  <text x="256" y="432" text-anchor="middle" fill="#f2c94c" font-family="Barlow, Arial, sans-serif" font-size="54" font-weight="800" letter-spacing="5">THANOS</text>
</svg>
